<svg width="13" height="12" viewBox="0 0 13 12" fill="none" xmlns="http://www.w3.org/2000/svg">
<path d="M6.38559 11.8334C6.63873 11.8334 6.84796 11.6454 6.88112 11.4013L6.8857 11.3335L6.8865 6.50004H11.7219C11.998 6.50004 12.2219 6.27618 12.2219 6.00004C12.2219 5.74691 12.0338 5.53771 11.7897 5.5046L11.7219 5.50004H6.8865L6.88786 0.667298C6.88792 0.391156 6.66411 0.167197 6.38797 0.167197C6.13483 0.167197 5.9256 0.355206 5.89244 0.59925L5.88786 0.667095L5.8865 5.50004H1.05383C0.777691 5.50004 0.553833 5.7239 0.553833 6.00004C0.553833 6.25317 0.741936 6.46237 0.985986 6.49548L1.05383 6.50004H5.8865L5.8857 11.3333C5.88564 11.6094 6.10945 11.8334 6.38559 11.8334Z" fill="#999999"/>
</svg>
