<svg width="16" height="17" viewBox="0 0 16 17" fill="none" xmlns="http://www.w3.org/2000/svg">
<path fill-rule="evenodd" clip-rule="evenodd" d="M3.4198 1.24997C3.14366 1.24997 2.9198 1.47382 2.9198 1.74997V8.01381C2.9198 8.02123 2.91996 8.02861 2.92028 8.03595V14.2778C2.92028 14.554 3.14414 14.7778 3.42028 14.7778H9.19607C11.3026 14.7778 13.0768 13.187 13.0768 11.1459C13.0768 9.48062 11.8959 8.11511 10.317 7.66868C11.163 7.00825 11.7092 6.01439 11.7092 4.88189C11.7092 2.84073 9.93506 1.24997 7.82848 1.24997H3.4198ZM3.9198 7.51381V2.24997H7.82848C9.45613 2.24997 10.7092 3.46362 10.7092 4.88189C10.7092 6.30014 9.45613 7.51381 7.82848 7.51381H3.9198ZM3.92028 13.7778V8.51398H9.19607C10.8237 8.51398 12.0768 9.72764 12.0768 11.1459C12.0768 12.5642 10.8237 13.7778 9.19607 13.7778H3.92028Z" fill="#323232"/>
</svg>
